<!DOCTYPE svg PUBLIC "-//W3C//DTD SVG 1.1//EN" "http://www.w3.org/Graphics/SVG/1.1/DTD/svg11.dtd">
<!--Uploaded to: SVG Repo, www.svgrepo.com, Transformed by: SVG Repo Mixer Tools-->
<svg height="104px" width="104px" version="1.1" id="_x32_" xmlns="http://www.w3.org/2000/svg" xmlns:xlink="http://www.w3.org/1999/xlink" viewBox="-51.2 -51.2 614.40 614.40" xml:space="preserve" fill="#525151" stroke="#525151">
  <g id="SVGRepo_bgCarrier" stroke-width="0"/>
  <g id="SVGRepo_tracerCarrier" stroke-linecap="round" stroke-linejoin="round"/>
  <g id="SVGRepo_iconCarrier">
    <style type="text/css">
      .st0{fill:#525151;}
    </style>
    <g>
      <path class="st0" d="M 304.872 377.116 L 304.872 35.636 C 304.872 15.956 288.931 0 269.24 0 L 49.504 0 C 29.808 0 13.868 15.956 13.868 35.636 L 13.868 377.116 C 13.868 396.796 29.808 412.745 49.504 412.752 L 269.24 412.752 C 288.931 412.745 304.872 396.797 304.872 377.116 Z M 31.354 377.116 L 31.354 35.636 C 31.372 25.609 39.477 17.505 49.504 17.483 L 269.24 17.483 C 279.262 17.505 287.367 25.609 287.39 35.636 L 287.39 377.116 C 287.367 387.142 279.263 395.246 269.24 395.262 L 49.504 395.262 C 39.477 395.247 31.372 387.142 31.354 377.116 Z"/>
      <path class="st0" d="M474.659,121.941L304.891,60.196v18.563l163.782,59.6c1.885,0.67,3.497,1.608,4.98,2.823 c0.738,0.536,1.479,1.207,2.082,1.877c4.506,4.783,6.186,11.911,3.836,18.571L362.74,482.528 c-3.43,9.408-13.859,14.257-23.271,10.824L132.978,418.22c-3.092-1.14-5.717-3.024-7.669-5.445h-19.773 c3.363,9.818,10.965,18.027,21.456,21.863l206.485,75.19c13.118,4.775,27.107,1.416,36.593-7.531 c1.349-1.214,2.556-2.556,3.699-4.038c2.22-2.89,4.105-6.123,5.378-9.75l116.831-320.898 C502.704,149.115,493.155,128.668,474.659,121.941z"/>
    </g>
  </g>
</svg>
